<svg width="1946" height="1272" viewBox="0 0 1946 1272" fill="none" xmlns="http://www.w3.org/2000/svg">
<path d="M1004.76 0C1070.65 3.41 1141.89 36.871 1190.97 80.368C1257.52 138.812 1297.75 221.583 1302.59 310.022C1306.78 394.887 1277.35 477.985 1220.68 541.296C1248.2 568.721 1276.28 599.306 1303.74 625.803C1279.71 650.191 1270.48 661.485 1235.3 656.526C1211.66 634.815 1190.05 612.238 1167.75 589.178C1150.72 606.207 1109.87 626.66 1087.43 634.852C1066.31 643.962 1027.41 651.853 1004.59 653.642C1004.5 629.01 1004.55 604.378 1004.75 579.746C1043.11 577.164 1085.06 559.024 1116.81 537.999C1096.67 518.05 1076.78 497.844 1057.15 477.385L1107.73 426.03C1126.33 443.631 1151.65 470.088 1169.07 488.96C1200.47 449.158 1219 414.196 1226.35 362.78C1235.78 295.357 1218.04 226.951 1177.03 172.606C1134.01 115.469 1075.05 83.028 1004.79 73.201L1004.76 0Z" fill="#000100"/>
<path d="M940.806 0.600992C943.256 0.127992 943.076 0.117994 945.466 0.818994C946.446 5.55999 945.736 63.831 945.686 73.023C905.346 78.089 866.786 92.676 833.186 115.58C770.376 158.789 737.776 216.205 724.226 289.909C758.846 288.046 803.976 290.543 840.086 289.571C839.766 313.654 840.016 338.298 839.986 362.428C827.456 363.381 808.316 362.877 795.376 362.899C771.906 363.056 748.436 363.014 724.966 362.774C731.106 407.569 749.586 449.775 778.336 484.672C820.256 536.082 879.216 573.074 945.986 579.809L946.016 602.905L945.986 654.29C876.786 644.502 825.716 625.784 770.506 580.972C701.886 525.823 658.267 445.45 649.413 357.864C640.985 272.474 666.701 187.22 720.936 120.733C775.366 53.072 854.476 9.84899 940.806 0.600992Z" fill="#000100"/>
<path d="M322.937 853.565C340.005 851.545 362.45 854.885 378.325 861.115C405.484 871.535 427.261 892.515 438.683 919.275C451.345 949.135 451.864 986.605 439.409 1016.62C426.515 1047.7 406.57 1066.02 376.107 1078.98C405.543 1100.67 425.47 1114.49 462.338 1122.32L459.679 1133.56C449.2 1136.11 440.468 1136.15 429.871 1136.01C425.724 1135.42 421.342 1134.92 417.373 1134.26C383.273 1130.56 357.376 1103.32 329.233 1090.59C305.522 1082.14 281.881 1080.31 261.506 1063.17C181.962 996.275 216.145 864.535 322.937 853.565ZM336.345 1072.34C353.043 1071.51 369.257 1066.99 380.526 1053.55C416.085 1011.13 411.48 920.715 371.505 882.625C360.478 872.115 345.405 868.175 330.998 867.535C312.856 868.695 297.423 873.485 285.198 888.115C243.749 937.705 257.658 1067.03 336.345 1072.34Z" fill="#000100" fill-opacity="0.988235"/>
<path d="M1116.22 853.695C1180.48 847.855 1237.32 895.165 1243.22 959.415C1249.13 1023.67 1201.87 1080.56 1137.62 1086.53C1073.29 1092.51 1016.3 1045.17 1010.39 980.825C1004.47 916.475 1051.87 859.545 1116.22 853.695ZM1135.71 1072.35C1153.49 1069.99 1167.1 1064.14 1178 1049.22C1215.86 997.425 1200.87 862.845 1118.01 867.415C1100.44 870.035 1085.86 877.245 1075.3 892.195C1037.42 945.845 1051.18 1074.13 1135.71 1072.35Z" fill="#000100"/>
<path d="M1524.77 858.055C1549.33 858.365 1573.95 857.925 1598.52 858.125C1604.7 858.175 1610.43 858.005 1616.6 858.755C1616.73 858.935 1616.89 859.105 1616.99 859.315C1617.78 860.925 1617.63 864.105 1616.93 865.735C1614.7 870.885 1605.36 870.805 1600.67 872.775C1597.05 874.305 1594.59 876.905 1593.33 880.645C1590.18 890.005 1591.28 993.235 1592.91 1007.45C1594.03 1017.16 1596.23 1026.74 1600.45 1035.6C1606.39 1048.1 1616.23 1057.78 1629.38 1062.43C1645.2 1068.02 1664.95 1067.56 1680.09 1060.06C1693.6 1053.36 1702.41 1041.07 1707.16 1027.03C1710.24 1017.94 1711.67 1008.36 1712.5 998.825C1714.04 980.995 1713.13 962.905 1713.21 945.025C1713.28 928.375 1714.54 910.835 1712.79 894.285C1712.27 889.375 1711.33 884.105 1708.94 879.735C1703.55 869.865 1692.33 871.875 1683.43 868.685C1680.81 867.755 1679.96 866.555 1678.68 864.205C1678.96 861.115 1678.78 861.135 1680.82 858.615C1690.04 857.455 1712.66 858.125 1722.92 858.185C1731.93 858.305 1758.51 854.075 1760.01 864.485C1757.19 871.945 1746.89 867.405 1740.5 873.905C1736.4 878.075 1732.73 882.415 1732.17 888.545C1728.57 929.365 1733.86 971.015 1728.9 1011.83C1722.12 1067.65 1675.16 1095.73 1621.57 1086.22C1556.52 1074.68 1551.94 1026.58 1552 971.825L1552.27 910.025C1552.41 881.565 1555.17 873.615 1524.67 868.615L1524.77 858.055Z" fill="#000100"/>
<path d="M3.61414 858.065L164.242 857.845C164.213 866.155 168.115 906.905 166.063 910.665C162.428 912.155 159.048 912.915 155.508 910.685C147.74 870.155 126.198 870.995 91.6621 871.835C83.2141 872.045 78.3691 871.695 70.0911 874.285C66.7751 877.605 68.1281 947.045 68.1221 958.005C74.4241 958.025 80.9381 958.425 87.2081 958.275C113.669 957.635 131.066 965.885 135.824 932.685L147.869 933.665L147.656 998.875L136.051 998.975C132.679 965.275 109.487 973.975 83.7231 972.705C78.6601 972.455 73.3191 972.725 68.2211 972.735L68.1391 991.945C68.2411 1007.85 66.0881 1044.18 71.0741 1057.41C77.4731 1074.39 132.323 1070.01 145.766 1063.12C159.243 1056.22 166.049 1037.9 170.692 1023.98L183.168 1025.44C180.631 1043.25 176.601 1064.45 173.119 1082.15H60.5781C42.7451 1082.15 24.3591 1082.36 6.51413 1081.98C1.82413 1081.88 2.40114 1081.64 0.0151365 1078.81C-0.656863 1069.19 21.2491 1070.88 25.3881 1064.31C30.4751 1056.24 30.0341 1041.36 30.0231 1032.23C29.9951 1010.46 30.0091 988.835 30.0231 967.135L30.0271 916.685C30.0191 906.905 30.5451 892.925 28.7121 883.525C25.8811 869.015 14.0431 872.625 4.95413 867.295C2.55013 863.665 3.43014 863.075 3.61414 858.065Z" fill="#000100"/>
<path d="M965.096 256.864C1003.24 251.114 1038.81 277.401 1044.5 315.548C1050.2 353.695 1023.86 389.226 985.706 394.87C947.626 400.502 912.176 374.228 906.496 336.157C900.806 298.085 927.026 262.602 965.096 256.864Z" fill="#000100"/>
<path d="M1868.77 853.565C1889.06 852.355 1906.97 856.855 1926.66 860.815C1929.38 877.035 1931.53 894.505 1933.81 910.865C1929.68 912.325 1925.71 913.095 1921.44 914.045C1916.2 889.545 1905.07 871.805 1878.1 867.895C1845.79 863.215 1819.81 899.045 1842.54 923.665C1874.03 957.775 1948.6 958.555 1945.65 1020.61C1943.26 1070.82 1898.54 1089.58 1853.78 1087.26C1832.72 1084.75 1820.07 1081.25 1801.59 1070.85C1798.59 1053.21 1795.55 1034.65 1793.92 1016.86C1798.05 1015.9 1802.36 1015.3 1806.55 1014.62C1811.32 1031.83 1818.05 1047.32 1831.98 1059.16C1843.07 1068.76 1857.61 1073.39 1872.21 1071.99C1895 1069.82 1911.48 1050.9 1907.92 1028.23C1902.25 992.055 1847.63 985.045 1823.81 963.485C1811.07 953.225 1801.97 940.645 1800.48 923.655C1796.6 879.465 1828.64 857.615 1868.77 853.565Z" fill="#000100"/>
<path d="M805.586 858.055L970.236 857.985C970.486 870.195 972.236 900.525 970.766 910.765C968.786 912.205 967.346 911.825 964.456 912.095C954.746 906.475 956.086 871.465 926.326 872.405C920.746 872.585 874.286 869.585 873.696 874.585C870.636 900.725 872.186 933.805 872.296 960.345C888.396 960.385 904.916 961.315 920.936 960.645C936.726 959.985 940.126 947.675 942.266 935.235C946.066 935.515 950.436 936.165 954.266 936.645C953.196 959.245 954.556 982.145 953.646 1004.62L941.866 1004.36C937.086 970.025 917.506 976.735 889.816 976.095C884.026 975.965 878.056 976.175 872.246 976.215C872.186 991.495 868.406 1054.53 877.806 1064.89C883.656 1071.34 895.726 1071.14 903.846 1071.77C904.026 1075.75 904.376 1077.8 903.246 1081.65C892.656 1083.06 864.836 1081.81 852.216 1082.09C843.366 1082.29 813.776 1082.71 806.006 1081.72C804.926 1079.3 805.426 1074.59 805.526 1071.71C814.516 1070.96 829.576 1070.62 831.016 1058.77C834.356 1031.33 832.546 1002.8 832.906 975.065C833.266 947.315 832.866 919.275 832.536 891.515C832.026 871.295 823.526 870.525 805.756 868.345L805.586 858.055Z" fill="#000100"/>
<path d="M1402.63 853.525C1438.65 850.935 1447.23 858.295 1478.25 862.515L1479.35 862.655C1481.86 881.155 1484.13 899.685 1486.16 918.245L1473.37 920.515C1470.63 909.475 1467.63 900.285 1461.24 890.805C1441.82 861.145 1392.15 861.875 1366.1 881.405C1321 915.375 1320.19 995.855 1351.64 1038.84C1374.89 1070.62 1418.85 1084.17 1452.27 1059.45C1465.59 1046.84 1472.79 1035.56 1479.9 1018.81L1493.05 1021.47C1487.06 1039 1485.09 1057.67 1476.95 1076.72C1423.98 1091.29 1371.53 1095.25 1325.43 1058.51C1277.48 1020.29 1274.67 942.435 1312.91 896.585C1336.21 868.635 1367.09 856.615 1402.63 853.525Z" fill="#000100"/>
<path d="M485.373 849.765C494.737 849.985 496.038 857.075 508.584 857.315C556.363 858.205 604.778 858.855 652.482 857.175C658.951 856.945 665.978 849.835 672.823 851.085C674.2 857.035 674.532 870.505 674.95 877.125C675.732 888.955 676.748 900.775 677.998 912.575L665.891 914.065C654.921 866.365 641.669 871.885 598.404 872.185L598.381 990.065C598.405 1006.41 597.523 1044.77 600.43 1058.96C608.194 1075.06 624.608 1066.91 631.394 1076.6C631.029 1079.5 631.031 1078.72 628.996 1081.39C618.552 1083.52 542.388 1082.93 530.31 1081.7C528.893 1078.86 529.562 1075.04 529.759 1071.73C547.196 1070.68 557.579 1068.79 558.632 1049.06C559.725 1028.58 559.365 1008.21 559.381 987.705L559.229 872.205C516.634 871.745 504.047 867.935 492.854 914.335L480.882 912.745C482.309 891.775 484.503 870.735 485.373 849.765Z" fill="#000100"/>
<path d="M660.458 1199.1C674.828 1198.92 710.566 1194.92 717.826 1210.72C724.976 1226.28 718.506 1236.96 703.586 1243.49C708.486 1250.27 718.106 1262.85 722.016 1269.61C719.926 1270.89 713.916 1270.52 710.916 1270.59C705.136 1270.1 694.446 1251.18 689.966 1245.58L673.141 1245.3L673.15 1270.33L660.289 1270.22C660.159 1246.51 660.215 1222.8 660.458 1199.1ZM673.001 1234.28C683.721 1234.55 695.436 1236.29 704.376 1230.7C718.026 1207.24 685.756 1210.8 673.039 1210.31L673.001 1234.28Z" fill="#000100"/>
<path d="M848.846 1199.06C863.146 1198.9 879.766 1197.48 893.616 1201.22C907.456 1204.94 912.646 1221.57 905.436 1233.4C902.326 1238.51 896.826 1241.01 891.496 1243.35C897.916 1252.45 904.446 1261.48 911.086 1270.42C906.686 1270.61 901.476 1270.51 897.006 1270.54C893.486 1269.15 881.186 1249.85 878.216 1245.46L861.656 1245.54L861.586 1270.28L848.536 1270.23C848.496 1246.5 848.596 1222.78 848.846 1199.06ZM861.436 1234.71C872.356 1234.69 882.536 1235.94 892.096 1231.09C907.096 1208.16 874.606 1210.16 861.556 1210.35L861.436 1234.71Z" fill="#000100"/>
<path d="M1025.36 1198.8L1038.08 1198.83C1048.18 1222.55 1059.78 1247.18 1070.86 1270.45L1056.37 1270.4L1049.23 1253.65L1035.92 1253.58L1013.99 1253.82C1011.76 1259.29 1009.31 1264.83 1006.97 1270.27L993.306 1270.34C1003.87 1246.44 1014.55 1222.59 1025.36 1198.8ZM1018.72 1242.3L1033.47 1242.31C1036.37 1242.33 1041.26 1242.75 1043.63 1241.54C1042.27 1236.86 1034.16 1215.72 1030.72 1213.6C1026.92 1223.43 1022.6 1232.67 1018.72 1242.3Z" fill="#000100"/>
<path d="M1417.19 1198.84L1429.71 1198.91L1462.57 1270.36L1448.71 1270.28L1441.11 1253.68L1430.91 1253.42L1405.87 1253.44L1398.62 1270.29L1385.23 1270.35C1395.93 1246.74 1405.83 1222.07 1417.19 1198.84ZM1410.18 1242.45L1422.92 1242.46L1436.14 1242.28C1434.07 1237.38 1425.79 1216.35 1422.64 1213.8L1410.18 1242.45Z" fill="#000100"/>
<path d="M927.396 1199.08C943.266 1198.34 965.636 1199.02 981.986 1199.03L981.796 1210.38L940.026 1210.18L940.116 1228.51C952.146 1228.87 964.826 1228.74 976.906 1228.81L976.996 1240.05L945.976 1240.04C942.636 1240.12 943.366 1239.64 940.866 1241.17C939.036 1246.41 939.846 1253.06 939.906 1258.96C946.276 1258.93 978.966 1257.77 982.526 1260.9C982.496 1264.1 982.836 1267 981.206 1269.7C973.646 1271.41 937.026 1270.43 927.276 1270.35C927.096 1246.59 927.136 1222.84 927.396 1199.08Z" fill="#000100"/>
<path d="M1594.48 1198.91C1594.6 1202.36 1594.39 1206.99 1594.34 1210.55C1580.52 1210.56 1566.69 1210.49 1552.86 1210.34L1552.88 1228.66C1565.05 1228.82 1577.38 1228.72 1589.57 1228.73L1589.71 1240.11H1557.92C1554.7 1240.2 1555.98 1239.68 1553.63 1241.09C1552.05 1245.79 1552.77 1253.59 1552.85 1258.94L1594.92 1259.02L1594.94 1270.35L1540.13 1270.32L1540.14 1199.03L1594.48 1198.91Z" fill="#000100"/>
<path d="M1187.94 1198.96L1242.31 1198.92C1242.45 1202.51 1242.29 1206.95 1242.27 1210.61L1200.61 1210.32L1200.65 1228.65L1237.57 1228.72L1237.69 1240.16L1207.18 1240.12C1203.35 1240.2 1203.89 1239.59 1201.4 1241.46C1199.66 1246.1 1200.55 1253.67 1200.54 1258.97L1242.69 1259.06L1242.87 1270.39L1187.81 1270.38C1188.37 1247.18 1187.93 1222.28 1187.94 1198.96Z" fill="#000100"/>
<path d="M466.681 1199.07C470.558 1198.87 474.354 1198.26 477.882 1199.59C479.939 1202.57 479.211 1202.45 479.28 1206.86C479.385 1222.82 482.877 1250.24 472.132 1262.59C461.389 1275.2 436.095 1274.48 425 1262.69C412.795 1249.72 416.718 1216.42 416.851 1199.21L429.638 1199.14C429.813 1212.2 427.24 1249.3 434.893 1254.45C476.203 1282.22 466.758 1207.37 466.681 1199.07Z" fill="#000100"/>
<path d="M627.056 1199.12C630.629 1198.99 635.537 1198.28 638.359 1200.03C640.25 1202.76 639.649 1206.63 639.588 1210.13C639.74 1226.09 642.74 1251.9 631.138 1263.93C620.978 1274.79 595.539 1273.97 585.693 1263.18C572.887 1249.15 576.986 1217.4 577.235 1199.22L590.105 1199.12C590.06 1208.94 587.109 1250.21 595.83 1255.12C635.198 1277.3 627.067 1219.96 627.056 1199.12Z" fill="#000100"/>
<path d="M1277.06 1198.52C1291.69 1197.3 1298.7 1198.56 1310.82 1206.95C1308.75 1210.22 1306.29 1213.27 1303.93 1216.34C1294.5 1210.77 1276.97 1203.18 1271.09 1217.28C1273.6 1229.33 1297.63 1228.24 1305.55 1235.76C1324.82 1254.07 1308.16 1269.45 1287.75 1271.7C1273.65 1271.02 1266.83 1268.56 1255.96 1259.91L1263.72 1250.79C1274.09 1259.01 1290.43 1266.69 1300.53 1253.95C1302.84 1242.54 1280.41 1241.01 1272.53 1237.22C1250.65 1226.67 1255.39 1205.92 1277.06 1198.52Z" fill="#000100"/>
<path d="M546.007 1199.26L561.532 1199.12C553.39 1210.7 544.287 1221.7 535.905 1233.76L562.869 1270.36C557.786 1270.46 552.423 1270.38 547.314 1270.38C541.542 1263.28 533.271 1250.76 527.876 1243.05L509.19 1270.2L493.898 1270.32L519.895 1233.85L494.841 1199.15L510.334 1199.23C516.347 1207.72 522.187 1216.35 527.849 1225.09C533.351 1216.68 540.137 1207.54 546.007 1199.26Z" fill="#000100"/>
<path d="M785.556 1199.22L800.446 1199.08L785.176 1221.73C780.576 1228.81 775.896 1235.84 771.136 1242.81L771.106 1270.34L758.246 1270.38L758.146 1242.82C748.576 1228.18 738.856 1213.62 729.016 1199.15L744.376 1199.28C751.296 1210.06 758.186 1220.66 764.636 1231.73C768.406 1224.37 780.406 1207.19 785.556 1199.22Z" fill="#000100"/>
<path d="M1463.53 1198.9L1523.69 1199.01L1523.7 1210.77C1515.91 1210.86 1507.99 1210.78 1500.19 1210.77L1500.18 1244.91L1500.13 1270.23L1486.98 1270.26C1487.33 1250.81 1487.04 1230.44 1487.05 1210.92L1463.57 1211.04L1463.53 1198.9Z" fill="#000100"/>
<path d="M1324.16 1198.85L1383.89 1199.01L1383.9 1210.72C1375.53 1210.92 1368.53 1210.8 1360.21 1210.51L1360.32 1246.41L1360.34 1270.53L1347.22 1270.51L1347.37 1210.77L1324.19 1210.93L1324.16 1198.85Z" fill="#000100"/>
<path d="M1085.5 1199.09L1098.14 1199.15L1098.22 1258.97C1106.36 1258.96 1129.21 1258.4 1135.82 1259.67C1137.46 1262.52 1136.94 1267.06 1136.9 1270.55C1120.33 1270.08 1102.03 1270.39 1085.33 1270.36C1085.2 1246.6 1085.26 1222.84 1085.5 1199.09Z" fill="#000100"/>
<path d="M351.976 1199.2L364.543 1199.15C364.649 1219.13 364.648 1239.11 364.541 1259.09C372.341 1258.9 395.375 1258.43 402.32 1259.53C403.852 1262.6 403.416 1266.43 403.419 1270.01C397.321 1270.99 360.596 1270.57 351.863 1270.57L351.976 1199.2Z" fill="#000100"/>
</svg>
