<svg width="1421" height="737" viewBox="0 0 1421 737" fill="none" xmlns="http://www.w3.org/2000/svg">
<path d="M1191.35 92.964C1202.75 92.024 1219.57 92.229 1230.67 93.182C1284.86 97.356 1335.09 123.151 1370.06 164.76C1446.09 255.816 1436.44 422.197 1342.21 498.287C1260.42 564.337 1131.49 561.277 1063.18 476.397L1063.32 620.347C1063.39 658.437 1064.08 698.407 1063.25 736.347C1028.67 737.267 990.338 736.777 955.668 736.557C954.388 716.527 955.328 685.397 955.318 664.747L955.168 102.556L1059.28 102.655C1059.4 124.93 1059.32 147.205 1059.04 169.478C1088.84 117.155 1133 97.908 1191.35 92.964ZM1198.36 445.667C1268.44 439.017 1319.96 376.967 1313.62 306.862C1307.27 236.755 1245.45 184.967 1175.31 191.007C1104.75 197.085 1052.57 259.374 1058.95 329.914C1065.34 400.457 1127.85 452.357 1198.36 445.667Z" fill="black"/>
<path d="M213.878 93.022C222.397 92.511 230.932 92.329 239.465 92.477C319.319 94.162 383.349 134.611 414.938 208.467C436.011 257.734 436.333 303.75 435.123 355.707C326.959 357.027 216.634 355.487 108.201 355.757C109.9 367.467 111.896 378.687 116.192 389.287C146.428 463.937 244.674 477.337 305.263 431.787C319.136 421.357 328.063 411.927 339.182 399.367C347.829 405.187 358.86 414.157 367.365 420.717C382.803 432.267 401.331 445.427 415.922 457.657C414.565 459.987 413.481 461.567 411.786 463.627C373.663 509.957 318.891 537.517 259.209 542.667C193.245 548.347 130.014 533.297 78.15 491.087C-16.422 414.127 -25.356 262.674 52.414 170.93C93.411 122.567 151.065 98.088 213.878 93.022ZM108.821 275.557C147.949 275.23 187.079 275.139 226.208 275.286L293.161 275.33C303.902 275.331 318.545 275.759 328.841 275.044C325.203 242.835 319.712 217.616 292.892 195.693C271.522 178.227 243.121 172.553 216.042 173.115C151.654 178.482 117.556 211.251 108.821 275.557Z" fill="black"/>
<path d="M851.788 0L981.858 0.295959C974.638 10.947 962.818 25.548 954.738 36.256L739.088 318.428C747.518 327.867 757.218 341.391 765.028 351.687L804.558 403.837C836.738 446.447 870.778 489.667 902.168 532.617C858.308 532.317 814.448 532.327 770.588 532.637L701.178 441.817C692.168 429.187 681.734 417.207 672.964 404.227C652.543 431.807 631.946 459.257 611.176 486.577C600.584 500.587 586.83 519.907 575.566 532.657C533.026 532.387 485.905 533.847 443.996 532.367C459.841 509.057 485.296 478.047 502.9 454.937L625.254 294.576C678.196 224.387 731.508 154.477 785.178 84.847C806.178 57.469 827.088 29.812 848.078 2.40997C849.398 0.683973 849.808 0.575 851.788 0Z" fill="black"/>
<path d="M442.402 102.481L574.792 102.531C596.166 127.85 621.393 163.982 642.5 191.293C629.817 207.319 617.137 224.633 604.782 241.025C595.135 252.769 586.234 266.488 576.158 277.793C531.264 220.65 486.622 160.344 442.402 102.481Z" fill="black"/>
<path d="M100.799 610.857C112.752 610.737 124.829 610.787 136.765 610.567C154.588 610.227 173.396 610.707 182.818 628.957C187.299 637.567 187.998 647.647 184.745 656.787C180.648 667.957 173.044 674.167 162.779 679.107C170.091 693.987 178.431 709.067 186.341 723.647C178.929 723.867 171.154 723.797 163.709 723.847C158.123 722.167 143.248 688.037 139.725 680.667C133.69 680.717 127.655 680.697 121.62 680.597C121.801 695.027 121.84 709.467 121.737 723.897C114.694 723.977 107.65 723.917 100.609 723.717C101.519 687.197 100.776 647.627 100.799 610.857ZM121.93 662.707C135.082 662.997 150.481 665.277 160.944 657.927C169.251 646.207 165.897 638.207 154.622 630.777C143.738 630.257 131.906 630.847 121.805 630.237C121.839 640.907 121.707 652.077 121.93 662.707Z" fill="black"/>
<path d="M426.737 606.957C430.264 608.277 431.23 608.887 433.075 612.347C439.774 625.517 445.858 639.217 451.923 652.727C462.543 676.367 474.228 699.847 484.439 723.647L461.89 723.887C458.393 717.647 455.92 711.277 453.181 704.677L428.708 704.547L403.796 704.737C401.092 711.127 398.278 717.477 395.356 723.767C387.703 724.067 379.537 723.847 371.833 723.767C380.917 703.717 390.617 683.617 399.889 663.587C408.225 645.587 417.298 624.137 426.737 606.957ZM411.191 686.477C416.973 686.497 422.899 686.427 428.665 686.527L444.173 686.277C441.824 680.817 431.057 654.337 427.962 651.177C421.673 662.387 417.855 675.157 411.191 686.477Z" fill="black"/>
<path d="M255.745 610.857L329.599 610.757C329.91 616.457 330.894 624.057 328.537 629.057C323.14 631.797 285.483 630.607 276.782 630.507C276.904 639.527 276.867 648.547 276.672 657.567C286.961 657.787 309.954 656.587 318.921 658.687C322.029 662.837 320.59 671.177 320.204 676.607C311.712 676.947 283.92 675.877 277.527 677.307L276.71 679.347C276.733 687.757 276.702 696.177 276.615 704.587C286.188 704.487 323.805 702.827 329.188 706.887C330.436 711.707 329.685 718.547 329.448 723.717C305.06 724.257 279.153 723.857 254.648 723.847C255.158 706.777 252.866 620.637 255.745 610.857Z" fill="black"/>
<path d="M769.998 610.677C778.198 610.657 785.818 610.627 794.028 611.117C802.728 623.707 811.338 636.837 819.898 649.557C825.438 640.567 840.508 618.737 846.878 610.817C855.398 610.687 863.058 610.837 871.568 611.137C863.948 624.137 847.128 646.827 838.108 660.217C835.428 663.847 833.248 667.087 830.778 670.887C830.968 688.517 830.898 706.147 830.578 723.787L809.378 723.837L809.518 671.357C803.688 663.477 770.608 616.427 769.998 610.677Z" fill="black"/>
<path d="M640.812 610.717C666.962 610.547 693.118 610.617 719.268 610.917C721.618 636.637 712.258 630.747 690.398 630.297C690.728 655.167 690.468 680.547 690.428 705.467C690.398 711.537 690.288 717.607 690.098 723.667C683.961 724.107 674.973 723.847 668.604 723.837C667.832 693.667 668.517 660.957 668.603 630.547C659.243 630.307 650.246 630.437 640.72 630.087C639.862 623.867 639.551 616.877 640.812 610.717Z" fill="black"/>
<path d="M1378.95 1.417C1396.79 -2.993 1414.81 7.95 1419.13 25.813C1423.45 43.676 1412.41 61.643 1394.53 65.867C1376.77 70.061 1358.97 59.123 1354.68 41.391C1350.39 23.659 1361.24 5.795 1378.95 1.417ZM1391.43 59.874C1401.03 58.201 1408.97 51.442 1412.15 42.227C1415.33 33.013 1413.26 22.797 1406.73 15.554C1400.21 8.30997 1390.26 5.18299 1380.77 7.38899C1366.64 10.671 1357.69 24.601 1360.58 38.816C1363.46 53.03 1377.14 62.365 1391.43 59.874Z" fill="black"/>
<path d="M1374.84 16.589C1381.99 16.366 1390.59 15.443 1397.11 19.172C1401.94 21.93 1401.1 30.411 1397 33.202C1389.29 38.457 1399.25 42.54 1400.45 48.812C1398.02 51.065 1398.12 50.316 1393.85 50.635C1391.01 44.638 1389.94 41.931 1385.84 36.706L1383.87 36.5379C1383.4 37.1219 1380.42 48.538 1379.83 50.453L1378.2 51.239L1376.14 49.748C1373.71 45.683 1374.87 23.645 1374.84 16.589ZM1392.87 30.556C1393.63 25.696 1394 27.862 1392.38 23.739C1388.88 21.06 1385.66 21.473 1381.25 21.543C1381.08 25.299 1380.42 27.973 1382.47 30.957C1386.25 32.336 1388.69 31.785 1392.87 30.556Z" fill="black" fill-opacity="0.988235"/>
<path d="M531.11 610.657C538.321 610.757 545.531 610.887 552.741 611.047C552.97 642.197 553.003 673.357 552.84 704.507C567.533 704.477 583.278 704.187 597.86 704.837C598.186 710.487 597.966 718.087 597.959 723.887L530.882 723.747C530.753 689.027 529.409 644.717 531.11 610.657Z" fill="black"/>
</svg>
